<?xml version="1.0" standalone="no"?>
<!DOCTYPE svg PUBLIC "-//W3C//DTD SVG 20010904//EN"
 "http://www.w3.org/TR/2001/REC-SVG-20010904/DTD/svg10.dtd">
<svg version="1.0" xmlns="http://www.w3.org/2000/svg"
 width="180.000000pt" height="180.000000pt" viewBox="0 0 180.000000 180.000000"
 preserveAspectRatio="xMidYMid meet">
<metadata>
Created by potrace 1.11, written by Peter Selinger 2001-2013
</metadata>
<g transform="translate(0.000000,180.000000) scale(0.100000,-0.100000)"
fill="#000000" stroke="none">
<path d="M1064 1721 c-3 -3 -10 -6 -17 -7 -7 -1 -23 -5 -37 -8 -61 -13 -87
-18 -115 -21 -16 -2 -30 -4 -30 -5 0 -1 -16 -4 -35 -7 -19 -2 -82 -20 -140
-40 -58 -19 -111 -36 -117 -36 -7 0 -13 -4 -13 -9 0 -5 -5 -6 -10 -3 -6 3 -13
0 -16 -9 -3 -8 -11 -13 -19 -10 -7 3 -19 -1 -26 -8 -8 -7 -23 -15 -34 -16 -11
-2 -32 -10 -47 -18 -15 -8 -34 -14 -43 -14 -8 0 -15 -3 -15 -8 0 -6 -31 -19
-79 -33 -24 -7 -50 -32 -44 -42 3 -6 1 -7 -5 -3 -6 3 -16 -2 -21 -13 -14 -25
-14 -81 -1 -81 6 0 10 -9 10 -19 0 -11 4 -23 10 -26 5 -3 9 -23 8 -44 -1 -21
7 -49 17 -65 11 -17 18 -45 18 -72 0 -24 3 -44 8 -44 5 0 6 -7 2 -16 -3 -9 0
-19 6 -24 7 -4 23 -36 35 -72 13 -36 30 -79 39 -96 14 -29 14 -35 0 -63 -19
-38 -13 -157 9 -173 8 -6 17 -19 21 -29 3 -9 11 -17 17 -17 6 0 18 -7 27 -16
9 -8 22 -13 29 -10 8 3 14 0 14 -6 0 -6 3 -8 7 -5 3 4 12 2 20 -4 10 -9 13 -8
13 1 0 7 7 10 15 6 8 -3 18 2 23 10 8 14 12 12 29 -10 11 -14 32 -31 47 -37
14 -7 26 -16 26 -20 0 -6 58 -30 108 -45 9 -3 3 -15 -20 -37 -18 -19 -35 -32
-37 -30 -6 4 -46 -68 -59 -107 -9 -29 -9 -195 1 -207 5 -7 6 -13 2 -13 -4 0
-2 -7 5 -15 7 -9 19 -14 27 -11 8 3 11 1 8 -4 -4 -7 90 -10 267 -10 254 0 274
1 275 18 1 9 6 34 11 54 5 20 6 40 3 45 -13 14 -35 93 -28 99 3 4 -5 29 -19
56 -14 27 -22 53 -19 57 2 5 -2 14 -10 21 -19 15 -3 40 26 40 10 0 21 4 24 10
3 5 28 12 55 16 27 4 48 10 45 14 -7 12 23 33 38 27 13 -5 71 28 127 71 31 24
34 83 6 125 -34 50 -2 217 34 181 6 -6 22 -9 36 -6 24 4 24 5 8 29 -9 14 -11
22 -4 18 7 -4 11 -1 9 6 -5 38 2 49 29 49 16 0 36 9 47 22 21 24 30 68 14 68
-5 0 -9 7 -9 15 0 19 -104 128 -113 119 -4 -4 -8 -1 -8 7 -1 8 -3 30 -5 49 -8
80 -9 138 -2 134 5 -3 8 7 8 21 0 14 -4 24 -8 21 -9 -5 -12 9 -17 89 -2 33 -5
62 -5 65 -1 3 -1 18 0 33 1 20 -6 34 -26 50 -16 12 -30 21 -32 19 -1 -1 -10 4
-18 13 -9 8 -22 15 -30 15 -8 0 -14 4 -14 8 0 9 -99 39 -112 34 -5 -1 -8 2 -8
6 0 8 -188 11 -196 3z"/>
</g>
</svg>
