<?xml version="1.0" standalone="no"?>
<!DOCTYPE svg PUBLIC "-//W3C//DTD SVG 20010904//EN"
 "http://www.w3.org/TR/2001/REC-SVG-20010904/DTD/svg10.dtd">
<svg version="1.0" xmlns="http://www.w3.org/2000/svg"
 width="512.000000pt" height="512.000000pt" viewBox="0 0 512.000000 512.000000"
 preserveAspectRatio="xMidYMid meet">
<metadata>
Created by potrace 1.14, written by Peter Selinger 2001-2017
</metadata>
<g transform="translate(0.000000,512.000000) scale(0.100000,-0.100000)"
fill="#000000" stroke="none">
<path d="M3391 4691 c-12 -16 -21 -33 -21 -38 0 -4 -20 -20 -45 -35 -56 -34
-58 -58 -8 -84 21 -11 48 -35 60 -54 46 -71 59 -73 86 -14 10 21 35 46 62 62
24 15 45 35 45 44 0 9 -19 29 -42 45 -24 16 -47 38 -53 50 -30 60 -54 67 -84
24z"/>
<path d="M1394 4685 c-128 -38 -189 -178 -130 -299 93 -191 379 -138 400 74
14 149 -128 268 -270 225z"/>
<path d="M4050 4223 c-95 -36 -134 -156 -77 -241 42 -62 139 -88 202 -54 77
41 109 143 69 218 -34 63 -130 101 -194 77z"/>
<path d="M492 4061 c-12 -21 -35 -44 -51 -51 -50 -20 -49 -43 5 -75 18 -10 39
-33 48 -51 21 -44 46 -44 71 2 11 20 35 44 57 55 33 17 37 22 28 39 -6 11 -23
26 -39 35 -16 8 -38 30 -49 50 -12 19 -27 35 -35 35 -7 0 -23 -17 -35 -39z"/>
<path d="M4826 4008 c-17 -26 -16 -38 8 -93 66 -150 94 -260 102 -400 6 -108
22 -147 62 -150 12 -1 31 7 43 18 21 19 21 26 15 136 -3 72 -15 153 -31 214
-28 109 -81 246 -108 277 -23 28 -72 26 -91 -2z"/>
<path d="M2767 3984 c-1 -1 -56 -4 -122 -8 -66 -3 -131 -8 -145 -10 -14 -3
-49 -7 -78 -10 -49 -5 -83 -12 -123 -22 -9 -2 -21 -16 -28 -31 -10 -23 -9 -30
7 -52 21 -28 31 -29 137 -17 60 7 96 11 190 21 59 7 339 7 375 1 14 -2 51 -7
84 -11 324 -37 612 -179 763 -377 104 -136 157 -289 167 -488 5 -92 16 -110
67 -110 37 0 51 22 53 82 5 190 -55 393 -167 558 -45 66 -174 191 -248 239
-115 76 -309 158 -412 177 -17 3 -33 7 -37 9 -6 4 -103 21 -170 30 -51 7 -308
23 -313 19z"/>
<path d="M1965 3853 c-11 -3 -67 -20 -125 -39 -464 -152 -973 -496 -1292 -874
-120 -141 -248 -339 -248 -382 0 -37 55 -66 90 -48 8 5 28 32 43 62 67 128
217 316 369 463 129 125 161 153 287 245 284 210 619 380 886 449 102 27 126
56 89 109 -15 22 -48 27 -99 15z"/>
<path d="M2793 3731 c-61 -38 -79 -109 -43 -168 61 -100 212 -70 227 45 10 77
-33 131 -111 139 -29 3 -50 -2 -73 -16z"/>
<path d="M2537 3384 c-1 -1 -27 -5 -57 -8 -213 -24 -475 -119 -708 -255 -201
-117 -447 -339 -437 -394 5 -25 40 -57 63 -57 8 0 43 28 77 63 110 110 153
147 265 223 186 125 388 217 593 269 126 32 165 37 279 39 79 2 101 6 118 21
25 22 26 46 2 75 -16 20 -28 23 -105 25 -48 1 -88 0 -90 -1z"/>
<path d="M2983 3358 c-12 -6 -24 -22 -28 -35 -10 -42 16 -68 91 -88 169 -46
300 -143 358 -265 29 -60 31 -73 30 -165 -1 -82 -6 -112 -27 -169 -38 -99 -82
-168 -162 -250 -207 -214 -524 -323 -756 -262 -95 24 -155 67 -177 126 -39
102 70 236 195 242 100 4 117 -11 109 -91 -7 -60 -3 -72 29 -88 49 -26 95 33
95 122 0 109 -81 177 -210 177 -284 1 -453 -317 -267 -501 129 -129 388 -161
632 -80 302 101 540 320 631 581 33 92 41 251 17 331 -36 124 -119 232 -235
308 -59 38 -189 93 -242 103 -14 3 -34 7 -44 10 -9 2 -27 0 -39 -6z"/>
<path d="M4957 3242 c-10 -11 -16 -39 -18 -82 -1 -62 -14 -183 -23 -225 -52
-244 -144 -458 -290 -680 -121 -184 -241 -320 -425 -486 -54 -48 -62 -60 -56
-80 9 -29 32 -49 59 -49 44 0 219 160 363 333 231 277 424 668 469 952 3 20 8
47 10 59 3 11 7 70 11 129 5 94 3 110 -12 127 -22 25 -67 26 -88 2z"/>
<path d="M2520 3004 c-255 -35 -471 -142 -645 -318 -109 -111 -184 -244 -202
-358 -60 -369 206 -673 642 -734 28 -3 59 -8 70 -10 27 -6 229 -5 285 1 98 10
139 17 240 40 178 40 370 116 384 150 9 25 -4 64 -26 76 -14 8 -33 6 -71 -7
-29 -9 -56 -20 -62 -24 -21 -16 -236 -77 -334 -95 -134 -24 -325 -34 -401 -21
-14 2 -49 7 -78 11 -70 8 -201 50 -260 82 -216 118 -315 314 -266 525 55 234
316 461 624 542 84 22 258 31 335 17 33 -6 94 -28 135 -48 61 -31 79 -46 98
-81 54 -98 15 -242 -97 -361 -45 -47 -51 -78 -23 -104 30 -27 64 -20 109 21
93 85 156 228 155 354 -1 131 -60 218 -196 284 -122 59 -265 79 -416 58z"/>
<path d="M4308 2763 c-114 -71 -43 -253 88 -228 105 19 136 150 52 220 -35 30
-99 33 -140 8z"/>
<path d="M3987 2688 c-9 -7 -27 -44 -41 -81 -31 -84 -91 -199 -131 -252 -17
-22 -37 -51 -46 -65 -24 -37 -164 -178 -239 -239 -36 -30 -69 -63 -73 -75 -19
-49 36 -91 86 -64 55 29 227 190 304 283 63 78 131 188 179 291 52 112 64 172
39 197 -19 20 -55 22 -78 5z"/>
<path d="M1212 2563 c-17 -7 -69 -111 -99 -198 -37 -109 -54 -201 -58 -315 -3
-91 0 -131 19 -245 7 -45 59 -184 88 -235 105 -189 275 -348 485 -454 94 -47
126 -47 150 -1 19 37 -2 62 -89 106 -351 176 -543 471 -533 816 1 54 6 116 10
138 12 66 55 196 86 257 16 32 29 68 29 81 0 42 -45 67 -88 50z"/>
<path d="M245 2402 c-46 -32 -133 -279 -160 -452 -4 -25 -9 -56 -12 -69 -22
-126 -17 -358 12 -501 21 -107 106 -288 146 -313 25 -15 68 1 81 29 10 22 9
31 -6 58 -92 155 -129 302 -127 511 1 216 48 438 128 615 30 65 32 99 7 117
-19 14 -53 17 -69 5z"/>
<path d="M593 1933 c-82 -41 -79 -183 5 -222 50 -24 125 -7 156 35 79 109 -40
247 -161 187z"/>
<path d="M1945 1577 c-77 -26 -125 -91 -125 -172 0 -119 110 -204 224 -174
107 29 164 143 122 243 -35 83 -138 131 -221 103z"/>
<path d="M4816 1555 c-9 -10 -23 -30 -31 -46 -9 -16 -28 -35 -44 -44 -69 -35
-73 -62 -13 -89 26 -12 45 -31 61 -62 30 -56 52 -57 84 -3 14 23 42 51 63 63
55 30 55 50 0 83 -25 15 -50 40 -57 55 -6 14 -19 34 -29 43 -16 15 -19 15 -34
0z"/>
<path d="M3833 1520 c-166 -105 -440 -234 -632 -300 -81 -27 -251 -77 -296
-86 -298 -60 -542 -65 -775 -17 -41 8 -82 16 -90 18 -22 4 -60 -35 -60 -61 0
-12 11 -31 24 -42 24 -19 148 -46 281 -61 101 -12 333 -5 460 14 207 30 507
115 695 197 109 47 372 183 450 231 74 46 85 56 88 83 4 38 -19 64 -56 63 -15
0 -55 -18 -89 -39z"/>
<path d="M4299 944 c-7 -9 -29 -43 -49 -77 -30 -52 -45 -67 -95 -94 -33 -17
-66 -41 -73 -52 -19 -28 -6 -58 31 -77 52 -26 117 -68 117 -76 0 -19 72 -127
88 -130 32 -7 59 14 82 62 30 63 55 91 113 120 62 32 89 64 78 93 -4 11 -39
38 -77 60 -62 34 -73 45 -107 107 -44 81 -77 101 -108 64z"/>
<path d="M1094 692 c-6 -4 -21 -25 -33 -48 -16 -28 -37 -48 -67 -62 -62 -31
-61 -60 4 -95 36 -19 54 -37 67 -67 18 -39 49 -60 65 -43 5 4 17 24 27 43 11
19 35 45 54 57 80 51 83 70 17 104 -24 12 -50 38 -69 69 -30 49 -43 57 -65 42z"/>
<path d="M3132 530 c-72 -45 -73 -140 -2 -188 48 -32 104 -25 143 18 15 16 28
37 28 45 1 8 2 21 3 28 1 6 -2 24 -7 38 -22 68 -105 97 -165 59z"/>
</g>
</svg>
